<?xml version="1.0" encoding="UTF-8" standalone="no" ?>
<!DOCTYPE svg PUBLIC "-//W3C//DTD SVG 1.1//EN" "http://www.w3.org/Graphics/SVG/1.1/DTD/svg11.dtd">
<svg xmlns="http://www.w3.org/2000/svg" xmlns:xlink="http://www.w3.org/1999/xlink" version="1.1" width="1080" height="1080" viewBox="0 0 1080 1080" xml:space="preserve">
<desc>Created with Fabric.js 5.2.4</desc>
<defs>
</defs>
<g transform="matrix(1 0 0 1 540 540)" id="efdf1221-e57f-4597-a06c-68811f82904d"  >
<rect style="stroke: none; stroke-width: 1; stroke-dasharray: none; stroke-linecap: butt; stroke-dashoffset: 0; stroke-linejoin: miter; stroke-miterlimit: 4; fill: rgb(255,255,255); fill-rule: nonzero; opacity: 1; visibility: hidden;" vector-effect="non-scaling-stroke"  x="-540" y="-540" rx="0" ry="0" width="1080" height="1080" />
</g>
<g transform="matrix(1 0 0 1 540 540)" id="02c517f6-bab0-40f1-9834-a8d583b74baf"  >
</g>
<g transform="matrix(65.98 0 0 65.98 539.82 540.18)" id="55fd96ec-3464-4ecc-9439-d499db90f833"  >
<path style="stroke: rgb(244,113,30); stroke-width: 0; stroke-dasharray: none; stroke-linecap: butt; stroke-dashoffset: 0; stroke-linejoin: miter; stroke-miterlimit: 4; fill: rgb(244,113,30); fill-rule: nonzero; opacity: 1;" vector-effect="non-scaling-stroke"  transform=" translate(-8, -8)" d="M 16 8 C 16 3.5817220013536524 12.418277998646348 0 8 0 C 3.5817220013536524 0 0 3.5817220013536515 0 7.999999999999999 C 0 12.418277998646348 3.5817220013536524 16 8 16 C 12.418277998646348 16 16 12.418277998646348 16 8 M 8.5 11.5 C 8.5 11.776142374915397 8.276142374915397 12 8 12 C 7.723857625084603 12 7.5 11.776142374915397 7.5 11.5 L 7.5 5.707 L 5.354 7.854 C 5.158491198559899 8.049508801440101 4.841508801440101 8.049508801440101 4.646 7.854 C 4.450491198559899 7.658491198559899 4.450491198559899 7.341508801440101 4.646 7.146 L 7.646 4.146 C 7.739804263010167 4.051958299312365 7.8671727391417585 3.9991062163145816 8 3.9991062163145816 C 8.13282726085824 3.9991062163145816 8.260195736989832 4.051958299312365 8.354 4.146 L 11.354 7.146 C 11.5495088014401 7.341508801440101 11.5495088014401 7.658491198559899 11.354 7.854 C 11.158491198559899 8.049508801440101 10.841508801440101 8.049508801440101 10.645999999999999 7.854000000000001 L 8.5 5.707 z" stroke-linecap="round" />
</g>
<g transform="matrix(NaN NaN NaN NaN 0 0)"  >
<g style=""   >
</g>
</g>
<g transform="matrix(NaN NaN NaN NaN 0 0)"  >
<g style=""   >
</g>
</g>
<g transform="matrix(NaN NaN NaN NaN 0 0)"  >
<g style=""   >
</g>
</g>
<g transform="matrix(NaN NaN NaN NaN 0 0)"  >
<g style=""   >
</g>
</g>
<g transform="matrix(NaN NaN NaN NaN 0 0)"  >
<g style=""   >
</g>
</g>
</svg>