<?xml version="1.0" encoding="UTF-8" standalone="no" ?>
<!DOCTYPE svg PUBLIC "-//W3C//DTD SVG 1.1//EN" "http://www.w3.org/Graphics/SVG/1.1/DTD/svg11.dtd">
<svg xmlns="http://www.w3.org/2000/svg" xmlns:xlink="http://www.w3.org/1999/xlink" version="1.1" width="1080" height="1080" viewBox="0 0 1080 1080" xml:space="preserve">
<desc>Created with Fabric.js 5.2.4</desc>
<defs>
</defs>
<g transform="matrix(1 0 0 1 540 540)" id="df10ed0c-358e-48ec-a182-7aeb0f8c415e"  >
</g>
<g transform="matrix(1 0 0 1 540 540)" id="844194a3-8fc1-419d-adf2-6a3a07711d0d"  >
<rect style="stroke: none; stroke-width: 1; stroke-dasharray: none; stroke-linecap: butt; stroke-dashoffset: 0; stroke-linejoin: miter; stroke-miterlimit: 4; fill: rgb(255,255,255); fill-rule: nonzero; opacity: 1; visibility: hidden;" vector-effect="non-scaling-stroke"  x="-540" y="-540" rx="0" ry="0" width="1080" height="1080" />
</g>
<g transform="matrix(1 0 0 1 540 540)"  >
<g style="" vector-effect="non-scaling-stroke"   >
		<g transform="matrix(0.13 0 0 -0.13 -12.81 -11.79)"  >
<path style="stroke: none; stroke-width: 1; stroke-dasharray: none; stroke-linecap: butt; stroke-dashoffset: 0; stroke-linejoin: miter; stroke-miterlimit: 4; fill: rgb(255,255,255); fill-rule: nonzero; opacity: 1;" vector-effect="non-scaling-stroke"  transform=" translate(-5116.98, -5118.04)" d="M 1850 8649 C 1759 8640 1695 8619 1615 8575 C 1486 8503 1372 8369 1325 8235 C 1269 8073 1272 8245 1279 5055 L 1286 2115 L 1308 2056 C 1372 1883 1509 1726 1660 1651 C 1817 1574 1518 1580 5131 1580 L 8377 1580 L 8456 1603 C 8568 1635 8663 1691 8746 1774 C 8857 1885 8925 2020 8949 2180 C 8958 2236 8960 2989 8958 5175 L 8955 8095 L 8933 8165 C 8857 8402 8691 8569 8463 8638 C 8408 8654 8212 8655 5165 8656 C 3383 8657 1891 8654 1850 8649 z M 8355 8148 C 8372 8139 8397 8119 8412 8103 C 8472 8040 8468 8266 8469 5117 C 8470 2529 8468 2226 8455 2192 C 8434 2143 8403 2111 8355 2089 C 8317 2071 8233 2070 6148 2070 L 3980 2070 L 3980 4908 C 3980 6470 3977 7842 3973 7959 L 3967 8172 L 6146 8168 C 8134 8165 8328 8163 8355 8148 z M 3480 5348 C 3480 3801 3483 2430 3487 2302 L 3493 2069 L 2694 2072 C 1828 2075 1867 2073 1817 2128 C 1769 2181 1771 2036 1770 5123 C 1770 7947 1770 8022 1789 8058 C 1812 8103 1835 8124 1880 8144 C 1910 8157 2023 8159 2698 8160 L 3480 8160 L 3480 5348 z" stroke-linecap="round" />
</g>
		<g transform="matrix(0.13 0 0 -0.13 141.8 -231.36)"  >
<path style="stroke: none; stroke-width: 1; stroke-dasharray: none; stroke-linecap: butt; stroke-dashoffset: 0; stroke-linejoin: miter; stroke-miterlimit: 4; fill: rgb(255,255,255); fill-rule: nonzero; opacity: 1;" vector-effect="non-scaling-stroke"  transform=" translate(-6223.81, -6846.87)" d="M 4644 7094 C 4592 7076 4551 7041 4520 6987 C 4494 6942 4490 6925 4490 6859 C 4490 6738 4542 6655 4648 6608 C 4691 6589 4726 6588 6228 6595 L 7765 6601 L 7820 6628 C 7882 6659 7934 6720 7951 6783 C 7979 6887 7915 7027 7818 7074 L 7765 7099 L 6220 7102 C 5129 7104 4667 7102 4644 7094 z" stroke-linecap="round" />
</g>
		<g transform="matrix(0.13 0 0 -0.13 112.36 -97.98)"  >
<path style="stroke: none; stroke-width: 1; stroke-dasharray: none; stroke-linecap: butt; stroke-dashoffset: 0; stroke-linejoin: miter; stroke-miterlimit: 4; fill: rgb(255,255,255); fill-rule: nonzero; opacity: 1;" vector-effect="non-scaling-stroke"  transform=" translate(-5997.38, -5846.63)" d="M 4661 6082 C 4598 6061 4527 5988 4505 5921 C 4466 5804 4503 5698 4603 5636 C 4645 5610 4662 5606 4767 5599 C 4832 5595 5427 5594 6090 5597 C 7421 5602 7365 5599 7433 5665 C 7491 5721 7505 5755 7505 5840 C 7505 5900 7500 5925 7480 5963 C 7453 6017 7403 6066 7356 6085 C 7332 6095 7043 6098 6015 6098 C 4870 6097 4699 6095 4661 6082 z" stroke-linecap="round" />
</g>
		<g transform="matrix(0.13 0 0 -0.13 87.42 64.84)"  >
<path style="stroke: none; stroke-width: 1; stroke-dasharray: none; stroke-linecap: butt; stroke-dashoffset: 0; stroke-linejoin: miter; stroke-miterlimit: 4; fill: rgb(255,255,255); fill-rule: nonzero; opacity: 1;" vector-effect="non-scaling-stroke"  transform=" translate(-5805.46, -4625.76)" d="M 4635 4854 C 4590 4831 4532 4771 4510 4725 C 4468 4637 4498 4503 4574 4445 C 4646 4390 4586 4393 5815 4389 L 6955 4385 L 7000 4409 C 7100 4461 7120 4497 7120 4620 C 7120 4718 7105 4764 7058 4807 C 7000 4862 7055 4859 5813 4864 C 4798 4869 4661 4867 4635 4854 z" stroke-linecap="round" />
</g>
		<g transform="matrix(0.13 0 0 -0.13 40.57 197.17)"  >
<path style="stroke: none; stroke-width: 1; stroke-dasharray: none; stroke-linecap: butt; stroke-dashoffset: 0; stroke-linejoin: miter; stroke-miterlimit: 4; fill: rgb(255,255,255); fill-rule: nonzero; opacity: 1;" vector-effect="non-scaling-stroke"  transform=" translate(-5445.11, -3633.24)" d="M 4637 3858 C 4572 3829 4541 3801 4515 3749 C 4457 3635 4507 3472 4616 3419 C 4661 3398 4676 3397 4979 3393 C 5153 3391 5511 3393 5776 3397 L 6256 3405 L 6298 3433 C 6321 3448 6352 3479 6367 3502 C 6391 3538 6395 3555 6398 3632 C 6402 3712 6400 3724 6376 3765 C 6350 3808 6306 3848 6265 3866 C 6254 3870 5892 3874 5460 3874 C 4737 3875 4673 3874 4637 3858 z" stroke-linecap="round" />
</g>
		<g transform="matrix(0.13 0 0 -0.13 -332.33 -189.97)"  >
<path style="stroke: none; stroke-width: 1; stroke-dasharray: none; stroke-linecap: butt; stroke-dashoffset: 0; stroke-linejoin: miter; stroke-miterlimit: 4; fill: rgb(255,255,255); fill-rule: nonzero; opacity: 1;" vector-effect="non-scaling-stroke"  transform=" translate(-2637.5, -6529.65)" d="M 2345 7051 C 2206 7044 2170 7029 2136 6965 C 2116 6926 2115 6912 2115 6530 L 2115 6135 L 2140 6091 C 2156 6063 2179 6039 2205 6026 C 2244 6006 2259 6005 2640 6005 C 3064 6005 3065 6005 3112 6057 C 3156 6105 3160 6144 3160 6519 C 3160 6924 3156 6955 3095 7009 C 3076 7025 3046 7041 3028 7044 C 2974 7053 2474 7058 2345 7051 z M 2822 6473 C 2819 6401 2813 6352 2806 6348 C 2786 6335 2495 6339 2482 6352 C 2475 6359 2470 6393 2470 6432 C 2470 6522 2484 6528 2550 6466 C 2577 6441 2605 6420 2612 6420 C 2619 6420 2668 6458 2720 6505 C 2772 6551 2818 6590 2821 6590 C 2824 6590 2824 6537 2822 6473 z" stroke-linecap="round" />
</g>
		<g transform="matrix(0.13 0 0 -0.13 -332.6 91.8)"  >
<path style="stroke: none; stroke-width: 1; stroke-dasharray: none; stroke-linecap: butt; stroke-dashoffset: 0; stroke-linejoin: miter; stroke-miterlimit: 4; fill: rgb(255,255,255); fill-rule: nonzero; opacity: 1;" vector-effect="non-scaling-stroke"  transform=" translate(-2635.66, -4416.26)" d="M 2325 4941 C 2237 4934 2177 4910 2148 4870 C 2115 4824 2109 4742 2112 4372 L 2115 4015 L 2140 3970 C 2157 3940 2178 3918 2205 3905 C 2243 3886 2265 3885 2640 3885 C 3074 3885 3074 3885 3118 3947 C 3158 4005 3160 4030 3160 4424 C 3160 4850 3158 4862 3089 4911 C 3058 4933 3041 4936 2910 4942 C 2735 4950 2435 4949 2325 4941 z M 2823 4358 C 2820 4286 2812 4232 2806 4228 C 2800 4223 2723 4221 2635 4223 L 2475 4225 L 2472 4308 C 2468 4415 2480 4422 2555 4351 C 2620 4290 2611 4287 2730 4399 C 2777 4443 2818 4479 2822 4480 C 2826 4480 2826 4425 2823 4358 z" stroke-linecap="round" />
</g>
</g>
</g>
</svg>