<?xml version="1.0" encoding="UTF-8" standalone="no" ?>
<!DOCTYPE svg PUBLIC "-//W3C//DTD SVG 1.1//EN" "http://www.w3.org/Graphics/SVG/1.1/DTD/svg11.dtd">
<svg xmlns="http://www.w3.org/2000/svg" xmlns:xlink="http://www.w3.org/1999/xlink" version="1.1" width="1080" height="1080" viewBox="0 0 1080 1080" xml:space="preserve">
<desc>Created with Fabric.js 5.2.4</desc>
<defs>
</defs>
<g transform="matrix(1 0 0 1 540 540)" id="a3aeb054-4074-4957-a697-46efac7583ad"  >
<rect style="stroke: none; stroke-width: 1; stroke-dasharray: none; stroke-linecap: butt; stroke-dashoffset: 0; stroke-linejoin: miter; stroke-miterlimit: 4; fill: rgb(255,255,255); fill-rule: nonzero; opacity: 1; visibility: hidden;" vector-effect="non-scaling-stroke"  x="-540" y="-540" rx="0" ry="0" width="1080" height="1080" />
</g>
<g transform="matrix(1 0 0 1 540 540)" id="7b9d30b8-c5a7-415b-a86f-8a752af1cd7d"  >
</g>
<g transform="matrix(1 0 0 1 540 540)"  >
<g style="" vector-effect="non-scaling-stroke"   >
		<g transform="matrix(0.13 0 0 -0.13 356.83 -316.03)"  >
<path style="stroke: none; stroke-width: 1; stroke-dasharray: none; stroke-linecap: butt; stroke-dashoffset: 0; stroke-linejoin: miter; stroke-miterlimit: 4; fill: rgb(255,255,255); fill-rule: nonzero; opacity: 1;" vector-effect="non-scaling-stroke"  transform=" translate(-7798.42, -7614.11)" d="M 7563 8566 C 7461 8541 7409 8505 7267 8361 C 7194 8286 7103 8191 7065 8150 C 7027 8109 6960 8039 6917 7994 L 6839 7913 L 7018 7739 C 7117 7643 7407 7359 7663 7107 L 8128 6650 L 8201 6727 C 8242 6770 8366 6895 8476 7005 C 8648 7175 8682 7215 8709 7271 C 8777 7411 8774 7537 8700 7687 C 8661 7766 8647 7781 8287 8135 C 7978 8439 7905 8506 7855 8530 C 7757 8579 7663 8590 7563 8566 z" stroke-linecap="round" />
</g>
		<g transform="matrix(0.13 0 0 -0.13 -37.94 26.77)"  >
<path style="stroke: none; stroke-width: 1; stroke-dasharray: none; stroke-linecap: butt; stroke-dashoffset: 0; stroke-linejoin: miter; stroke-miterlimit: 4; fill: rgb(255,255,255); fill-rule: nonzero; opacity: 1;" vector-effect="non-scaling-stroke"  transform=" translate(-4837.67, -5043.15)" d="M 2535 8164 C 2284 8119 2062 8002 1874 7815 C 1672 7614 1546 7370 1506 7099 C 1493 7008 1490 6743 1488 5045 C 1485 2865 1480 3028 1555 2802 C 1652 2512 1831 2274 2072 2113 C 2229 2008 2389 1947 2575 1920 C 2677 1906 6916 1906 7035 1921 C 7421 1968 7755 2172 7963 2488 C 8089 2680 8160 2893 8181 3145 C 8188 3231 8190 3712 8188 4575 C 8184 5775 8183 5881 8166 5950 C 8144 6046 8092 6202 8078 6215 C 8071 6222 8011 6166 7890 6041 L 7712 5857 L 7711 4511 C 7710 3671 7706 3141 7699 3100 C 7649 2771 7408 2499 7085 2408 L 7005 2385 L 4890 2382 C 3413 2380 2750 2382 2692 2390 C 2516 2413 2356 2493 2225 2624 C 2129 2720 2071 2805 2029 2915 C 1960 3092 1965 2936 1968 5005 C 1970 6084 1976 6913 1981 6965 C 1993 7079 2012 7144 2060 7240 C 2179 7476 2415 7646 2672 7680 C 2730 7688 3247 7690 4400 7687 C 5842 7684 6053 7682 6107 7668 L 6168 7653 L 6334 7819 C 6425 7910 6500 7990 6500 7996 C 6500 8010 6371 8079 6290 8109 C 6260 8120 6199 8140 6155 8152 L 6075 8174 L 4345 8176 C 2876 8178 2603 8176 2535 8164 z" stroke-linecap="round" />
</g>
		<g transform="matrix(0.13 0 0 -0.13 60.06 -21.54)"  >
<path style="stroke: none; stroke-width: 1; stroke-dasharray: none; stroke-linecap: butt; stroke-dashoffset: 0; stroke-linejoin: miter; stroke-miterlimit: 4; fill: rgb(255,255,255); fill-rule: nonzero; opacity: 1;" vector-effect="non-scaling-stroke"  transform=" translate(-5572.68, -5405.46)" d="M 5278 6363 C 4543 5627 3931 5007 3918 4985 C 3904 4963 3884 4920 3873 4890 C 3861 4860 3721 4506 3562 4104 C 3402 3702 3269 3358 3265 3338 C 3243 3222 3362 3098 3482 3112 C 3552 3121 5053 3659 5150 3711 C 5194 3734 5336 3872 5820 4358 C 6158 4697 6761 5302 7159 5702 L 7883 6429 L 7255 7064 C 6909 7414 6624 7700 6621 7700 C 6618 7700 6014 7098 5278 6363 z" stroke-linecap="round" />
</g>
</g>
</g>
</svg>